<svg xmlns="http://www.w3.org/2000/svg" version="1.1" xmlns:xlink="http://www.w3.org/1999/xlink" xmlns:svgjs="http://svgjs.com/svgjs" width="1440" height="560" preserveAspectRatio="none" viewBox="0 0 1440 560"><g mask="url(&quot;#SvgjsMask1006&quot;)" fill="none"><rect width="1440" height="560" x="0" y="0" fill="url(#SvgjsLinearGradient1007)"></rect><path d="M1488 560L0 560 L0 293.04Q35.16 256.2, 72 291.36Q165.19 264.55, 192 357.73Q243.29 289.02, 312 340.31Q364.53 320.84, 384 373.36Q398.59 267.95, 504 282.54Q550.7 257.24, 576 303.94Q672.51 280.45, 696 376.96Q728.59 289.55, 816 322.15Q838.21 272.36, 888 294.56Q976.71 263.27, 1008 351.98Q1021.28 293.26, 1080 306.54Q1104.55 259.09, 1152 283.63Q1234.23 293.87, 1224 376.1Q1254.3 334.4, 1296 364.7Q1307.66 304.37, 1368 316.03Q1412.32 240.35, 1488 284.67z" fill="#182f5d"></path><path d="M1464 560L0 560 L0 354.34Q44.12 326.46, 72 370.58Q153.82 332.4, 192 414.23Q240.87 343.1, 312 391.96Q357.17 317.13, 432 362.3Q462.71 321.01, 504 351.72Q575.35 303.07, 624 374.42Q700.5 330.93, 744 407.43Q798.39 389.83, 816 444.22Q831.07 339.29, 936 354.36Q979.22 325.58, 1008 368.8Q1075.25 364.05, 1080 431.3Q1102.65 333.95, 1200 356.6Q1261.3 345.9, 1272 407.2Q1320.95 384.15, 1344 433.11Q1370.56 339.67, 1464 366.23z" fill="#25467d"></path><path d="M1512 560L0 560 L0 478.78Q36.41 395.19, 120 431.6Q173.05 412.65, 192 465.71Q252.76 454.47, 264 515.23Q284.6 415.83, 384 436.42Q454.96 387.38, 504 458.35Q588.86 423.21, 624 508.07Q673.23 437.3, 744 486.53Q781.64 404.17, 864 441.81Q940.79 398.61, 984 475.4Q1062.63 434.03, 1104 512.66Q1131.22 467.88, 1176 495.09Q1174.55 421.63, 1248 420.18Q1315.41 367.59, 1368 435Q1441.42 436.43, 1440 509.85Q1433.32 431.17, 1512 424.49z" fill="#356cb1"></path><path d="M1512 560L0 560 L0 577.36Q37.97 543.33, 72 581.29Q115.45 504.74, 192 548.19Q212.87 497.06, 264 517.92Q349.4 483.32, 384 568.71Q450.5 515.22, 504 581.72Q536.97 494.69, 624 527.67Q672.46 504.13, 696 552.59Q746.27 530.86, 768 581.13Q768.69 509.82, 840 510.51Q894.25 444.76, 960 499.02Q1034.88 453.9, 1080 528.79Q1168.56 497.35, 1200 585.91Q1225.09 539, 1272 564.09Q1302.62 474.71, 1392 505.33Q1457.86 451.19, 1512 517.05z" fill="white"></path></g><defs><mask id="SvgjsMask1006"><rect width="1440" height="560" fill="#ffffff"></rect></mask><linearGradient x1="15.28%" y1="-39.29%" x2="84.72%" y2="139.29%" gradientUnits="userSpaceOnUse" id="SvgjsLinearGradient1007"><stop stop-color="#0e2a47" offset="0"></stop><stop stop-color="#00459e" offset="1"></stop></linearGradient></defs></svg>